<svg xmlns="http://www.w3.org/2000/svg" version="1.1" xmlns:xlink="http://www.w3.org/1999/xlink" width="200" height="200"><svg xmlns="http://www.w3.org/2000/svg" version="1.1" xmlns:xlink="http://www.w3.org/1999/xlink" viewBox="0 0 200 200"><rect width="200" height="200" fill="url('#gradient')"></rect><defs><linearGradient id="SvgjsLinearGradient1001" gradientTransform="rotate(360 0.5 0.5)"><stop offset="0%" stop-color="#4ba160"></stop><stop offset="100%" stop-color="#e4aa2c"></stop></linearGradient></defs><g><g fill="#edc911" transform="matrix(3.9837312113174184,0,0,3.9837312113174184,7.7327220341044125,128.3087838905665)" stroke="#ef2212" stroke-width="0.3"><path d="M8.87 0L6.36-5.02L4.50-5.02L4.50 0L1.07 0L1.07-14.22L6.67-14.22Q9.20-14.22 10.63-13.10Q12.05-11.97 12.05-9.92L12.05-9.92Q12.05-8.44 11.45-7.46Q10.85-6.48 9.57-5.88L9.57-5.88L12.54-0.15L12.54 0L8.87 0ZM4.50-11.57L4.50-7.67L6.67-7.67Q7.65-7.67 8.14-8.18Q8.63-8.69 8.63-9.61Q8.63-10.53 8.13-11.05Q7.64-11.57 6.67-11.57L6.67-11.57L4.50-11.57ZM21.91 0L19.40-5.02L17.55-5.02L17.55 0L14.12 0L14.12-14.22L19.72-14.22Q22.25-14.22 23.67-13.10Q25.10-11.97 25.10-9.92L25.10-9.92Q25.10-8.44 24.50-7.46Q23.90-6.48 22.62-5.88L22.62-5.88L25.59-0.15L25.59 0L21.91 0ZM17.55-11.57L17.55-7.67L19.72-7.67Q20.69-7.67 21.19-8.18Q21.68-8.69 21.68-9.61Q21.68-10.53 21.18-11.05Q20.68-11.57 19.72-11.57L19.72-11.57L17.55-11.57ZM29.05-3.19L29.05-3.19Q29.83-3.19 30.35-2.73Q30.87-2.27 30.87-1.54Q30.87-0.82 30.35-0.36Q29.83 0.11 29.05 0.11L29.05 0.11Q28.26 0.11 27.75-0.36Q27.24-0.83 27.24-1.54Q27.24-2.26 27.75-2.72Q28.26-3.19 29.05-3.19ZM45.25-7.47L45.25-6.82Q45.25-4.74 44.48-3.13Q43.71-1.53 42.29-0.67Q40.87 0.20 39.05 0.20Q37.24 0.20 35.83-0.64Q34.42-1.47 33.64-3.03Q32.85-4.58 32.81-6.59L32.81-6.59L32.81-7.39Q32.81-9.48 33.58-11.08Q34.35-12.68 35.78-13.54Q37.21-14.41 39.03-14.41L39.03-14.41Q40.84-14.41 42.26-13.55Q43.67-12.70 44.46-11.11Q45.24-9.52 45.25-7.47L45.25-7.47ZM41.77-6.76L41.77-7.41Q41.77-9.53 41.06-10.63Q40.35-11.73 39.03-11.73L39.03-11.73Q36.46-11.73 36.31-7.86L36.31-7.86L36.30-6.82Q36.30-4.73 36.99-3.60Q37.69-2.48 39.05-2.48L39.05-2.48Q40.35-2.48 41.05-3.58Q41.76-4.69 41.77-6.76L41.77-6.76Z"></path></g></g></svg><style>@media (prefers-color-scheme: light) { :root { filter: none; } }
@media (prefers-color-scheme: dark) { :root { filter: none; } }
</style></svg>